<?xml version="1.0" encoding="UTF-8"?>
<svg width="62px" height="60px" viewBox="0 0 62 60" version="1.1" xmlns="http://www.w3.org/2000/svg" xmlns:xlink="http://www.w3.org/1999/xlink">
    <!-- Generator: Sketch 45.1 (43504) - http://www.bohemiancoding.com/sketch -->
    <title>logo_black</title>
    <desc>Created with Sketch.</desc>
    <defs>
        <polygon id="path-1" points="0.49463 0.5263 58.2715 0.5263 58.2715 24.1698 0.49463 24.1698"></polygon>
    </defs>
    <g id="Page-1" stroke="none" stroke-width="1" fill="none" fill-rule="evenodd">
        <g id="logo_black">
            <polygon id="Shape" fill="#5ED7C6" points="0 0 0 59.1086 59.1086 59.1086 59.1086 46.4425 54.8866 46.4425 54.8866 54.8866 4.22204 54.8866 4.22204 4.22204 42.2205 4.22204 42.2205 16.8882 54.8866 16.8882 54.8866 25.3331 59.1086 25.3331 59.1086 12.6661 46.4425 0"></polygon>
            <g id="Clipped" transform="translate(9.000000, 20.000000)">
                <mask id="mask-2" fill="white">
                    <use xlink:href="#path-1"></use>
                </mask>
                <g id="Shape"></g>
                <path d="M13.9336,18.3215 C13.5,18.9426 12.8936,19.4084 12.1143,19.7189 C11.3408,20.0236 10.4385,20.176 9.4072,20.176 C8.3643,20.176 7.4385,19.9328 6.6299,19.4465 C5.8213,18.9543 5.1943,18.257 4.749,17.3547 C4.3096,16.4523 4.084,15.4064 4.0723,14.217 L4.0723,13.1008 C4.0723,11.173 4.5205,9.6789 5.417,8.6183 C6.3193,7.5578 7.585,7.0275 9.2139,7.0275 C10.5498,7.0275 11.625,7.3703 12.4395,8.0558 C13.2539,8.7355 13.752,9.7023 13.9336,10.9562 L12.2461,10.9562 C11.9297,9.2629 10.9219,8.4162 9.2227,8.4162 C8.0918,8.4162 7.2334,8.8146 6.6475,9.6115 C6.0674,10.4025 5.7744,11.551 5.7686,13.0568 L5.7686,14.1027 C5.7686,15.5383 6.0967,16.6808 6.7529,17.5305 C7.4092,18.3742 8.2969,18.7961 9.416,18.7961 C10.0488,18.7961 10.6025,18.7258 11.0771,18.5851 C11.5518,18.4445 11.9443,18.2072 12.2549,17.8732 L12.2549,14.9992 L9.293,14.9992 L9.293,13.6281 L13.9336,13.6281 L13.9336,18.3215 Z M18.5654,20.0002 L16.8779,20.0002 L16.8779,7.2033 L18.5654,7.2033 L18.5654,20.0002 Z M28.7168,14.3488 L23.3467,14.3488 L23.3467,20.0002 L21.6592,20.0002 L21.6592,7.2033 L29.5869,7.2033 L29.5869,8.592 L23.3467,8.592 L23.3467,12.9689 L28.7168,12.9689 L28.7168,14.3488 Z M41.4521,14.0148 C41.4521,15.2687 41.2412,16.3644 40.8193,17.3019 C40.3975,18.2336 39.7998,18.9455 39.0264,19.4377 C38.2529,19.9299 37.3506,20.176 36.3193,20.176 C35.3115,20.176 34.418,19.9299 33.6387,19.4377 C32.8594,18.9396 32.2529,18.2336 31.8193,17.3195 C31.3916,16.3996 31.1719,15.3361 31.1602,14.1291 L31.1602,13.2062 C31.1602,11.9758 31.374,10.8889 31.8018,9.9455 C32.2295,9.0021 32.833,8.2814 33.6123,7.7834 C34.3975,7.2795 35.2939,7.0275 36.3018,7.0275 C37.3271,7.0275 38.2295,7.2766 39.0088,7.7746 C39.7939,8.2668 40.3975,8.9846 40.8193,9.9279 C41.2412,10.8654 41.4521,11.9582 41.4521,13.2062 L41.4521,14.0148 Z M39.7734,13.1887 C39.7734,11.6711 39.4688,10.508 38.8594,9.6994 C38.25,8.8849 37.3975,8.4777 36.3018,8.4777 C35.2354,8.4777 34.3945,8.8849 33.7793,9.6994 C33.1699,10.508 32.8564,11.633 32.8389,13.0744 L32.8389,14.0148 C32.8389,15.4855 33.1465,16.6428 33.7617,17.4865 C34.3828,18.3244 35.2354,18.7433 36.3193,18.7433 C37.4092,18.7433 38.2529,18.3478 38.8506,17.5568 C39.4482,16.7599 39.7559,15.6203 39.7734,14.1379 L39.7734,13.1887 Z M47.7539,14.2961 C46.3066,13.8801 45.252,13.3703 44.5898,12.7668 C43.9336,12.1574 43.6055,11.4074 43.6055,10.5168 C43.6055,9.509 44.0068,8.6769 44.8096,8.0207 C45.6182,7.3586 46.667,7.0275 47.9561,7.0275 C48.835,7.0275 49.6172,7.1974 50.3027,7.5373 C50.9941,7.8771 51.5273,8.3459 51.9023,8.9435 C52.2832,9.5412 52.4736,10.1945 52.4736,10.9035 L50.7773,10.9035 C50.7773,10.1301 50.5312,9.5236 50.0391,9.0842 C49.5469,8.6389 48.8525,8.4162 47.9561,8.4162 C47.124,8.4162 46.4736,8.6008 46.0049,8.9699 C45.542,9.3332 45.3105,9.84 45.3105,10.4904 C45.3105,11.0119 45.5303,11.4543 45.9697,11.8176 C46.415,12.175 47.168,12.5031 48.2285,12.8019 C49.2949,13.1008 50.127,13.4318 50.7246,13.7951 C51.3281,14.1525 51.7734,14.5715 52.0605,15.0519 C52.3535,15.5324 52.5,16.0978 52.5,16.7482 C52.5,17.7853 52.0957,18.6174 51.2871,19.2443 C50.4785,19.8654 49.3975,20.176 48.0439,20.176 C47.165,20.176 46.3447,20.009 45.583,19.675 C44.8213,19.3351 44.2324,18.8723 43.8164,18.2863 C43.4062,17.7004 43.2012,17.0353 43.2012,16.2912 L44.8975,16.2912 C44.8975,17.0646 45.1816,17.6769 45.75,18.1281 C46.3242,18.5734 47.0889,18.7961 48.0439,18.7961 C48.9346,18.7961 49.6172,18.6144 50.0918,18.2512 C50.5664,17.8879 50.8037,17.3928 50.8037,16.7658 C50.8037,16.1389 50.584,15.6555 50.1445,15.3156 C49.7051,14.9699 48.9082,14.6301 47.7539,14.2961 Z" id="Shape" fill="#FFFFFF" fill-rule="nonzero" mask="url(#mask-2)"></path>
            </g>
        </g>
    </g>
</svg>