<svg width="63" height="60" viewBox="0 0 63 60" fill="none" xmlns="http://www.w3.org/2000/svg">
<path fill-rule="evenodd" clip-rule="evenodd" d="M0 0V59.1086H59.1086V46.4425H54.8866V54.8866H4.22204V4.22204H42.2205V16.8882H54.8866V25.3331H59.1086V12.6661L46.4425 0H0Z" fill="#5ED7C6"/>
<mask id="mask0" style="mask-type:alpha" maskUnits="userSpaceOnUse" x="9" y="20" width="59" height="25">
<path d="M9.49463 20.5263H67.2715V44.1698H9.49463V20.5263Z" fill="white"/>
</mask>
<g mask="url(#mask0)">
<path d="M22.9336 38.3215C22.5 38.9426 21.8936 39.4084 21.1143 39.7189C20.3408 40.0236 19.4385 40.176 18.4072 40.176C17.3643 40.176 16.4385 39.9328 15.6299 39.4465C14.8213 38.9543 14.1943 38.257 13.749 37.3547C13.3096 36.4523 13.084 35.4064 13.0723 34.217V33.1008C13.0723 31.173 13.5205 29.6789 14.417 28.6183C15.3193 27.5578 16.585 27.0275 18.2139 27.0275C19.5498 27.0275 20.625 27.3703 21.4395 28.0558C22.2539 28.7355 22.752 29.7023 22.9336 30.9562H21.2461C20.9297 29.2629 19.9219 28.4162 18.2227 28.4162C17.0918 28.4162 16.2334 28.8146 15.6475 29.6115C15.0674 30.4025 14.7744 31.551 14.7686 33.0568V34.1027C14.7686 35.5383 15.0967 36.6808 15.7529 37.5305C16.4092 38.3742 17.2969 38.7961 18.416 38.7961C19.0488 38.7961 19.6025 38.7258 20.0771 38.5851C20.5518 38.4445 20.9443 38.2072 21.2549 37.8732V34.9992H18.293V33.6281H22.9336V38.3215ZM27.5654 40.0002H25.8779V27.2033H27.5654V40.0002ZM37.7168 34.3488H32.3467V40.0002H30.6592V27.2033H38.5869V28.592H32.3467V32.9689H37.7168V34.3488ZM50.4521 34.0148C50.4521 35.2687 50.2412 36.3644 49.8193 37.3019C49.3975 38.2336 48.7998 38.9455 48.0264 39.4377C47.2529 39.9299 46.3506 40.176 45.3193 40.176C44.3115 40.176 43.418 39.9299 42.6387 39.4377C41.8594 38.9396 41.2529 38.2336 40.8193 37.3195C40.3916 36.3996 40.1719 35.3361 40.1602 34.1291V33.2062C40.1602 31.9758 40.374 30.8889 40.8018 29.9455C41.2295 29.0021 41.833 28.2814 42.6123 27.7834C43.3975 27.2795 44.2939 27.0275 45.3018 27.0275C46.3271 27.0275 47.2295 27.2766 48.0088 27.7746C48.7939 28.2668 49.3975 28.9846 49.8193 29.9279C50.2412 30.8654 50.4521 31.9582 50.4521 33.2062V34.0148ZM48.7734 33.1887C48.7734 31.6711 48.4688 30.508 47.8594 29.6994C47.25 28.8849 46.3975 28.4777 45.3018 28.4777C44.2354 28.4777 43.3945 28.8849 42.7793 29.6994C42.1699 30.508 41.8564 31.633 41.8389 33.0744V34.0148C41.8389 35.4855 42.1465 36.6428 42.7617 37.4865C43.3828 38.3244 44.2354 38.7433 45.3193 38.7433C46.4092 38.7433 47.2529 38.3478 47.8506 37.5568C48.4482 36.7599 48.7559 35.6203 48.7734 34.1379V33.1887ZM56.7539 34.2961C55.3066 33.8801 54.252 33.3703 53.5898 32.7668C52.9336 32.1574 52.6055 31.4074 52.6055 30.5168C52.6055 29.509 53.0068 28.6769 53.8096 28.0207C54.6182 27.3586 55.667 27.0275 56.9561 27.0275C57.835 27.0275 58.6172 27.1974 59.3027 27.5373C59.9941 27.8771 60.5273 28.3459 60.9023 28.9435C61.2832 29.5412 61.4736 30.1945 61.4736 30.9035H59.7773C59.7773 30.1301 59.5312 29.5236 59.0391 29.0842C58.5469 28.6389 57.8525 28.4162 56.9561 28.4162C56.124 28.4162 55.4736 28.6008 55.0049 28.9699C54.542 29.3332 54.3105 29.84 54.3105 30.4904C54.3105 31.0119 54.5303 31.4543 54.9697 31.8176C55.415 32.175 56.168 32.5031 57.2285 32.8019C58.2949 33.1008 59.127 33.4318 59.7246 33.7951C60.3281 34.1525 60.7734 34.5715 61.0605 35.0519C61.3535 35.5324 61.5 36.0978 61.5 36.7482C61.5 37.7853 61.0957 38.6174 60.2871 39.2443C59.4785 39.8654 58.3975 40.176 57.0439 40.176C56.165 40.176 55.3447 40.009 54.583 39.675C53.8213 39.3351 53.2324 38.8723 52.8164 38.2863C52.4062 37.7004 52.2012 37.0353 52.2012 36.2912H53.8975C53.8975 37.0646 54.1816 37.6769 54.75 38.1281C55.3242 38.5734 56.0889 38.7961 57.0439 38.7961C57.9346 38.7961 58.6172 38.6144 59.0918 38.2512C59.5664 37.8879 59.8037 37.3928 59.8037 36.7658C59.8037 36.1389 59.584 35.6555 59.1445 35.3156C58.7051 34.9699 57.9082 34.6301 56.7539 34.2961Z" fill="#572EE5"/>
</g>
</svg>